<svg width="900" height="1280" viewBox="0 0 900 1280" fill="none" xmlns="http://www.w3.org/2000/svg">
  <rect width="900" height="1280" fill="#EAF2FF"/>
  <rect x="70" y="40" width="760" height="1200" rx="5" fill="#FFFFFF"/>
  <rect x="70" y="40" width="760" height="102" rx="5" fill="#1D4ED8"/>
  <text x="110" y="94" fill="#FFFFFF" font-family="Arial, sans-serif" font-size="30" font-weight="700">Blue Grid Pro</text>
  <text x="110" y="124" fill="#DBEAFE" font-family="Arial, sans-serif" font-size="16">Same structure, stronger commercial table styling</text>
  <rect x="100" y="176" width="700" height="48" fill="#DBEAFE" stroke="#93C5FD"/>
  <text x="120" y="206" fill="#1E3A8A" font-family="Arial, sans-serif" font-size="15" font-weight="700">GST / Quotation Number / Date Strip</text>
  <rect x="100" y="246" width="336" height="148" fill="#F8FBFF" stroke="#93C5FD" stroke-width="1.5"/>
  <rect x="464" y="246" width="336" height="148" fill="#F8FBFF" stroke="#93C5FD" stroke-width="1.5"/>
  <text x="122" y="280" fill="#1E3A8A" font-family="Arial, sans-serif" font-size="18" font-weight="700">Customer Detail</text>
  <text x="486" y="280" fill="#1E3A8A" font-family="Arial, sans-serif" font-size="18" font-weight="700">Quotation Detail</text>
  <text x="122" y="314" fill="#64748B" font-family="Arial, sans-serif" font-size="14">Sharper blocks with stronger blue structure</text>
  <text x="486" y="314" fill="#64748B" font-family="Arial, sans-serif" font-size="14">Good for fast scanning and sales quotes</text>
  <rect x="100" y="426" width="700" height="46" fill="#1D4ED8"/>
  <text x="122" y="456" fill="#FFFFFF" font-family="Arial, sans-serif" font-size="15" font-weight="700">Items Table</text>
  <g stroke="#93C5FD" stroke-width="1.5">
    <rect x="100" y="472" width="700" height="290" fill="#FFFFFF"/>
    <line x1="150" y1="472" x2="150" y2="762"/>
    <line x1="470" y1="472" x2="470" y2="762"/>
    <line x1="590" y1="472" x2="590" y2="762"/>
    <line x1="700" y1="472" x2="700" y2="762"/>
    <line x1="100" y1="530" x2="800" y2="530"/>
    <line x1="100" y1="588" x2="800" y2="588"/>
    <line x1="100" y1="646" x2="800" y2="646"/>
    <line x1="100" y1="704" x2="800" y2="704"/>
  </g>
  <rect x="100" y="794" width="430" height="112" fill="#F8FBFF" stroke="#93C5FD" stroke-width="1.5"/>
  <rect x="550" y="794" width="250" height="112" fill="#F8FBFF" stroke="#93C5FD" stroke-width="1.5"/>
  <text x="122" y="830" fill="#1E3A8A" font-family="Arial, sans-serif" font-size="18" font-weight="700">Amount in Words</text>
  <text x="122" y="860" fill="#64748B" font-family="Arial, sans-serif" font-size="14">Same content, more structured commercial feel</text>
  <text x="572" y="830" fill="#1E3A8A" font-family="Arial, sans-serif" font-size="18" font-weight="700">Totals</text>
  <text x="572" y="860" fill="#64748B" font-family="Arial, sans-serif" font-size="14">Clearer financial emphasis</text>
  <rect x="100" y="938" width="430" height="156" fill="#FFFFFF" stroke="#93C5FD" stroke-width="1.5"/>
  <rect x="550" y="938" width="250" height="156" fill="#FFFFFF" stroke="#93C5FD" stroke-width="1.5"/>
  <text x="122" y="974" fill="#1E3A8A" font-family="Arial, sans-serif" font-size="18" font-weight="700">Bank Details</text>
  <text x="122" y="1006" fill="#64748B" font-family="Arial, sans-serif" font-size="14">Designed for quick readability in PDF</text>
  <text x="572" y="974" fill="#1E3A8A" font-family="Arial, sans-serif" font-size="18" font-weight="700">Signature</text>
  <text x="572" y="1044" fill="#94A3B8" font-family="Arial, sans-serif" font-size="14">Authorised Signatory</text>
  <text x="450" y="1184" text-anchor="middle" fill="#64748B" font-family="Arial, sans-serif" font-size="16">Footer text / footer image area</text>
</svg>
