<svg width="1600" height="980" viewBox="0 0 1600 980" fill="none" xmlns="http://www.w3.org/2000/svg">
  <rect width="1600" height="980" fill="#F3F4F6"/>
  <text x="72" y="68" fill="#111827" font-family="Arial, sans-serif" font-size="34" font-weight="700">Palette Theme Round Two</text>
  <text x="72" y="102" fill="#6B7280" font-family="Arial, sans-serif" font-size="18">Additional quotation-theme previews using your palette references and one refined product-ready direction.</text>

  <g transform="translate(72,150)">
    <rect width="456" height="560" rx="5" fill="#FFFFFF" stroke="#FCEFC3"/>
    <rect x="22" y="22" width="412" height="58" rx="5" fill="#00CEC8"/>
    <text x="42" y="58" fill="#073B3A" font-family="Arial, sans-serif" font-size="28" font-weight="700">Tropical Heat</text>
    <rect x="22" y="96" width="412" height="34" rx="5" fill="#FCEFC3" stroke="#FF9C5F"/>
    <text x="38" y="118" fill="#8A3600" font-family="Arial, sans-serif" font-size="14" font-weight="700">GST / Quotation No / Date</text>
    <rect x="22" y="148" width="196" height="110" rx="5" fill="#FFFFFF" stroke="#FCEFC3"/>
    <rect x="238" y="148" width="196" height="110" rx="5" fill="#FF9C5F" stroke="#EB4203"/>
    <text x="38" y="176" fill="#0C6663" font-family="Arial, sans-serif" font-size="16" font-weight="700">Customer Detail</text>
    <text x="254" y="176" fill="#9A3207" font-family="Arial, sans-serif" font-size="16" font-weight="700">Quotation Detail</text>
    <text x="38" y="202" fill="#8A3600" font-family="Arial, sans-serif" font-size="12">High-energy and bold</text>
    <text x="254" y="202" fill="#8A3600" font-family="Arial, sans-serif" font-size="12">Better as a niche premium theme</text>
    <rect x="22" y="280" width="412" height="34" rx="5" fill="#EB4203"/>
    <text x="38" y="302" fill="#FFFFFF" font-family="Arial, sans-serif" font-size="14" font-weight="700">Items Table</text>
    <rect x="22" y="314" width="412" height="138" fill="#FFFFFF" stroke="#FCEFC3"/>
    <line x1="70" y1="314" x2="70" y2="452" stroke="#FCEFC3"/>
    <line x1="238" y1="314" x2="238" y2="452" stroke="#FCEFC3"/>
    <line x1="322" y1="314" x2="322" y2="452" stroke="#FCEFC3"/>
    <line x1="22" y1="360" x2="434" y2="360" stroke="#FCEFC3"/>
    <line x1="22" y1="406" x2="434" y2="406" stroke="#FCEFC3"/>
    <rect x="22" y="474" width="248" height="66" rx="5" fill="#FCEFC3" stroke="#FF9C5F"/>
    <rect x="286" y="474" width="148" height="66" rx="5" fill="#00CEC8" stroke="#00CEC8"/>
    <text x="38" y="504" fill="#8A3600" font-family="Arial, sans-serif" font-size="16" font-weight="700">Amount in Words</text>
    <text x="302" y="504" fill="#FFFFFF" font-family="Arial, sans-serif" font-size="16" font-weight="700">Totals</text>
  </g>

  <g transform="translate(560,150)">
    <rect width="456" height="560" rx="5" fill="#F4F4F6" stroke="#D2D2D4"/>
    <rect x="22" y="22" width="412" height="58" rx="5" fill="#FF634A"/>
    <text x="42" y="58" fill="#FFFFFF" font-family="Arial, sans-serif" font-size="28" font-weight="700">Opaline</text>
    <rect x="22" y="96" width="412" height="34" rx="5" fill="#E7E7E7" stroke="#D2D2D4"/>
    <text x="38" y="118" fill="#4B5563" font-family="Arial, sans-serif" font-size="14" font-weight="700">GST / Quotation No / Date</text>
    <rect x="22" y="148" width="196" height="110" rx="5" fill="#FFFFFF" stroke="#D2D2D4"/>
    <rect x="238" y="148" width="196" height="110" rx="5" fill="#F4F4F6" stroke="#D2D2D4"/>
    <text x="38" y="176" fill="#374151" font-family="Arial, sans-serif" font-size="16" font-weight="700">Customer Detail</text>
    <text x="254" y="176" fill="#374151" font-family="Arial, sans-serif" font-size="16" font-weight="700">Quotation Detail</text>
    <text x="38" y="202" fill="#6B7280" font-family="Arial, sans-serif" font-size="12">Minimal neutral base</text>
    <text x="254" y="202" fill="#6B7280" font-family="Arial, sans-serif" font-size="12">Coral accent adds freshness</text>
    <rect x="22" y="280" width="412" height="34" rx="5" fill="#FF634A"/>
    <text x="38" y="302" fill="#FFFFFF" font-family="Arial, sans-serif" font-size="14" font-weight="700">Items Table</text>
    <rect x="22" y="314" width="412" height="138" fill="#FFFFFF" stroke="#D2D2D4"/>
    <line x1="70" y1="314" x2="70" y2="452" stroke="#D2D2D4"/>
    <line x1="238" y1="314" x2="238" y2="452" stroke="#D2D2D4"/>
    <line x1="322" y1="314" x2="322" y2="452" stroke="#D2D2D4"/>
    <line x1="22" y1="360" x2="434" y2="360" stroke="#D2D2D4"/>
    <line x1="22" y1="406" x2="434" y2="406" stroke="#D2D2D4"/>
    <rect x="22" y="474" width="248" height="66" rx="5" fill="#E7E7E7" stroke="#D2D2D4"/>
    <rect x="286" y="474" width="148" height="66" rx="5" fill="#FF634A" stroke="#FF634A"/>
    <text x="38" y="504" fill="#374151" font-family="Arial, sans-serif" font-size="16" font-weight="700">Amount in Words</text>
    <text x="302" y="504" fill="#FFFFFF" font-family="Arial, sans-serif" font-size="16" font-weight="700">Totals</text>
  </g>

  <g transform="translate(1048,150)">
    <rect width="456" height="560" rx="5" fill="#FCFBF8" stroke="#D8D2C8"/>
    <rect x="22" y="22" width="412" height="58" rx="5" fill="#213885"/>
    <text x="42" y="58" fill="#ECDFD2" font-family="Arial, sans-serif" font-size="28" font-weight="700">Best-Of Refined</text>
    <rect x="22" y="96" width="412" height="34" rx="5" fill="#ECDFD2" stroke="#CCCACC"/>
    <text x="38" y="118" fill="#213885" font-family="Arial, sans-serif" font-size="14" font-weight="700">GST / Quotation No / Date</text>
    <rect x="22" y="148" width="196" height="110" rx="5" fill="#FFFFFF" stroke="#CCCACC"/>
    <rect x="238" y="148" width="196" height="110" rx="5" fill="#F3E8FF" stroke="#D8B4FE"/>
    <text x="38" y="176" fill="#213885" font-family="Arial, sans-serif" font-size="16" font-weight="700">Customer Detail</text>
    <text x="254" y="176" fill="#6B21A8" font-family="Arial, sans-serif" font-size="16" font-weight="700">Quotation Detail</text>
    <text x="38" y="202" fill="#5B6475" font-family="Arial, sans-serif" font-size="12">A product-safe premium direction</text>
    <text x="254" y="202" fill="#7E22CE" font-family="Arial, sans-serif" font-size="12">Blue base with controlled plum accent</text>
    <rect x="22" y="280" width="412" height="34" rx="5" fill="#081849"/>
    <text x="38" y="302" fill="#ECDFD2" font-family="Arial, sans-serif" font-size="14" font-weight="700">Items Table</text>
    <rect x="22" y="314" width="412" height="138" fill="#FFFFFF" stroke="#CCCACC"/>
    <line x1="70" y1="314" x2="70" y2="452" stroke="#CCCACC"/>
    <line x1="238" y1="314" x2="238" y2="452" stroke="#CCCACC"/>
    <line x1="322" y1="314" x2="322" y2="452" stroke="#CCCACC"/>
    <line x1="22" y1="360" x2="434" y2="360" stroke="#CCCACC"/>
    <line x1="22" y1="406" x2="434" y2="406" stroke="#CCCACC"/>
    <rect x="22" y="474" width="248" height="66" rx="5" fill="#ECDFD2" stroke="#CCCACC"/>
    <rect x="286" y="474" width="148" height="66" rx="5" fill="#893172" stroke="#5F3475"/>
    <text x="38" y="504" fill="#213885" font-family="Arial, sans-serif" font-size="16" font-weight="700">Amount in Words</text>
    <text x="302" y="504" fill="#FFFFFF" font-family="Arial, sans-serif" font-size="16" font-weight="700">Totals</text>
  </g>
</svg>
