<svg width="1600" height="1280" viewBox="0 0 1600 1280" fill="none" xmlns="http://www.w3.org/2000/svg">
  <rect width="1600" height="1280" fill="#F3F4F6"/>
  <text x="80" y="72" fill="#111827" font-family="Arial, sans-serif" font-size="34" font-weight="700">Quotation Theme Strip Mockup</text>
  <text x="80" y="106" fill="#6B7280" font-family="Arial, sans-serif" font-size="18">Same default layout, only color theme changes. Premium custom templates can come later as a separate layer.</text>

  <g transform="translate(80,150)">
    <rect width="280" height="230" rx="5" fill="#FFFFFF" stroke="#D1D5DB"/>
    <rect x="18" y="18" width="244" height="40" rx="5" fill="#1D4ED8"/>
    <rect x="18" y="72" width="244" height="28" rx="5" fill="#DBEAFE" stroke="#93C5FD"/>
    <rect x="18" y="114" width="152" height="54" rx="5" fill="#FFFFFF" stroke="#93C5FD"/>
    <rect x="182" y="114" width="80" height="54" rx="5" fill="#DBEAFE" stroke="#93C5FD"/>
    <rect x="18" y="182" width="244" height="24" rx="5" fill="#1D4ED8"/>
    <text x="18" y="220" fill="#1E3A8A" font-family="Arial, sans-serif" font-size="22" font-weight="700">Royal Blue</text>
    <circle cx="194" cy="219" r="10" fill="#1D4ED8"/>
    <circle cx="220" cy="219" r="10" fill="#DBEAFE" stroke="#93C5FD"/>
    <circle cx="246" cy="219" r="10" fill="#93C5FD"/>
  </g>

  <g transform="translate(390,150)">
    <rect width="280" height="230" rx="5" fill="#FFFFFF" stroke="#D1D5DB"/>
    <rect x="18" y="18" width="244" height="40" rx="5" fill="#1F2937"/>
    <rect x="18" y="72" width="244" height="28" rx="5" fill="#F3F4F6" stroke="#CBD5E1"/>
    <rect x="18" y="114" width="152" height="54" rx="5" fill="#FFFFFF" stroke="#CBD5E1"/>
    <rect x="182" y="114" width="80" height="54" rx="5" fill="#F3F4F6" stroke="#CBD5E1"/>
    <rect x="18" y="182" width="244" height="24" rx="5" fill="#374151"/>
    <text x="18" y="220" fill="#374151" font-family="Arial, sans-serif" font-size="22" font-weight="700">Slate Professional</text>
    <circle cx="194" cy="219" r="10" fill="#1F2937"/>
    <circle cx="220" cy="219" r="10" fill="#F3F4F6" stroke="#CBD5E1"/>
    <circle cx="246" cy="219" r="10" fill="#CBD5E1"/>
  </g>

  <g transform="translate(700,150)">
    <rect width="280" height="230" rx="5" fill="#FFFDF8" stroke="#E0D4C5"/>
    <rect x="18" y="18" width="244" height="40" rx="5" fill="#0F3D56"/>
    <rect x="18" y="72" width="244" height="28" rx="5" fill="#F8F3EC" stroke="#E0D4C5"/>
    <rect x="18" y="114" width="152" height="54" rx="5" fill="#FFFDF8" stroke="#E0D4C5"/>
    <rect x="182" y="114" width="80" height="54" rx="5" fill="#F8F3EC" stroke="#E0D4C5"/>
    <rect x="18" y="182" width="244" height="24" rx="5" fill="#C49A6C"/>
    <text x="18" y="220" fill="#7A6A58" font-family="Arial, sans-serif" font-size="22" font-weight="700">Warm Ivory</text>
    <circle cx="194" cy="219" r="10" fill="#0F3D56"/>
    <circle cx="220" cy="219" r="10" fill="#F8F3EC" stroke="#E0D4C5"/>
    <circle cx="246" cy="219" r="10" fill="#E0D4C5"/>
  </g>

  <g transform="translate(1010,150)">
    <rect width="280" height="230" rx="5" fill="#F6FFF8" stroke="#86EFAC"/>
    <rect x="18" y="18" width="244" height="40" rx="5" fill="#166534"/>
    <rect x="18" y="72" width="244" height="28" rx="5" fill="#DCFCE7" stroke="#86EFAC"/>
    <rect x="18" y="114" width="152" height="54" rx="5" fill="#FFFFFF" stroke="#86EFAC"/>
    <rect x="182" y="114" width="80" height="54" rx="5" fill="#DCFCE7" stroke="#86EFAC"/>
    <rect x="18" y="182" width="244" height="24" rx="5" fill="#166534"/>
    <text x="18" y="220" fill="#14532D" font-family="Arial, sans-serif" font-size="22" font-weight="700">Forest Ledger</text>
    <circle cx="194" cy="219" r="10" fill="#166534"/>
    <circle cx="220" cy="219" r="10" fill="#DCFCE7" stroke="#86EFAC"/>
    <circle cx="246" cy="219" r="10" fill="#86EFAC"/>
  </g>

  <g transform="translate(1320,150)">
    <rect width="280" height="230" rx="5" fill="#FFF8F8" stroke="#F5C2C7"/>
    <rect x="18" y="18" width="244" height="40" rx="5" fill="#7F1D1D"/>
    <rect x="18" y="72" width="244" height="28" rx="5" fill="#FDECEC" stroke="#F5C2C7"/>
    <rect x="18" y="114" width="152" height="54" rx="5" fill="#FFFFFF" stroke="#F5C2C7"/>
    <rect x="182" y="114" width="80" height="54" rx="5" fill="#FDECEC" stroke="#F5C2C7"/>
    <rect x="18" y="182" width="244" height="24" rx="5" fill="#991B1B"/>
    <text x="18" y="220" fill="#991B1B" font-family="Arial, sans-serif" font-size="22" font-weight="700">Maroon Signature</text>
    <circle cx="194" cy="219" r="10" fill="#7F1D1D"/>
    <circle cx="220" cy="219" r="10" fill="#FDECEC" stroke="#F5C2C7"/>
    <circle cx="246" cy="219" r="10" fill="#F5C2C7"/>
  </g>

  <g transform="translate(80,440)">
    <rect width="280" height="230" rx="5" fill="#FFFFFF" stroke="#94A3B8"/>
    <rect x="18" y="18" width="244" height="40" rx="5" fill="#334155"/>
    <rect x="18" y="72" width="244" height="28" rx="5" fill="#E2E8F0" stroke="#94A3B8"/>
    <rect x="18" y="114" width="152" height="54" rx="5" fill="#FFFFFF" stroke="#94A3B8"/>
    <rect x="182" y="114" width="80" height="54" rx="5" fill="#E2E8F0" stroke="#94A3B8"/>
    <rect x="18" y="182" width="244" height="24" rx="5" fill="#475569"/>
    <text x="18" y="220" fill="#475569" font-family="Arial, sans-serif" font-size="22" font-weight="700">Steel Grid</text>
    <circle cx="194" cy="219" r="10" fill="#334155"/>
    <circle cx="220" cy="219" r="10" fill="#E2E8F0" stroke="#94A3B8"/>
    <circle cx="246" cy="219" r="10" fill="#94A3B8"/>
  </g>

  <g transform="translate(390,440)">
    <rect width="280" height="230" rx="5" fill="#F4FFFE" stroke="#99F6E4"/>
    <rect x="18" y="18" width="244" height="40" rx="5" fill="#0F766E"/>
    <rect x="18" y="72" width="244" height="28" rx="5" fill="#CCFBF1" stroke="#99F6E4"/>
    <rect x="18" y="114" width="152" height="54" rx="5" fill="#FFFFFF" stroke="#99F6E4"/>
    <rect x="182" y="114" width="80" height="54" rx="5" fill="#CCFBF1" stroke="#99F6E4"/>
    <rect x="18" y="182" width="244" height="24" rx="5" fill="#115E59"/>
    <text x="18" y="220" fill="#115E59" font-family="Arial, sans-serif" font-size="22" font-weight="700">Teal Crest</text>
    <circle cx="194" cy="219" r="10" fill="#0F766E"/>
    <circle cx="220" cy="219" r="10" fill="#CCFBF1" stroke="#99F6E4"/>
    <circle cx="246" cy="219" r="10" fill="#99F6E4"/>
  </g>

  <g transform="translate(700,440)">
    <rect width="280" height="230" rx="5" fill="#FFFDF5" stroke="#FCD34D"/>
    <rect x="18" y="18" width="244" height="40" rx="5" fill="#B45309"/>
    <rect x="18" y="72" width="244" height="28" rx="5" fill="#FEF3C7" stroke="#FCD34D"/>
    <rect x="18" y="114" width="152" height="54" rx="5" fill="#FFFFFF" stroke="#FCD34D"/>
    <rect x="182" y="114" width="80" height="54" rx="5" fill="#FEF3C7" stroke="#FCD34D"/>
    <rect x="18" y="182" width="244" height="24" rx="5" fill="#92400E"/>
    <text x="18" y="220" fill="#92400E" font-family="Arial, sans-serif" font-size="22" font-weight="700">Amber Ledger</text>
    <circle cx="194" cy="219" r="10" fill="#B45309"/>
    <circle cx="220" cy="219" r="10" fill="#FEF3C7" stroke="#FCD34D"/>
    <circle cx="246" cy="219" r="10" fill="#FCD34D"/>
  </g>

  <g transform="translate(1010,440)">
    <rect width="280" height="230" rx="5" fill="#FBF7FF" stroke="#D8B4FE"/>
    <rect x="18" y="18" width="244" height="40" rx="5" fill="#6B21A8"/>
    <rect x="18" y="72" width="244" height="28" rx="5" fill="#F3E8FF" stroke="#D8B4FE"/>
    <rect x="18" y="114" width="152" height="54" rx="5" fill="#FFFFFF" stroke="#D8B4FE"/>
    <rect x="182" y="114" width="80" height="54" rx="5" fill="#F3E8FF" stroke="#D8B4FE"/>
    <rect x="18" y="182" width="244" height="24" rx="5" fill="#7E22CE"/>
    <text x="18" y="220" fill="#7E22CE" font-family="Arial, sans-serif" font-size="22" font-weight="700">Plum Executive</text>
    <circle cx="194" cy="219" r="10" fill="#6B21A8"/>
    <circle cx="220" cy="219" r="10" fill="#F3E8FF" stroke="#D8B4FE"/>
    <circle cx="246" cy="219" r="10" fill="#D8B4FE"/>
  </g>

  <g transform="translate(1320,440)">
    <rect width="280" height="230" rx="5" fill="#FFFFFF" stroke="#9CA3AF"/>
    <rect x="18" y="18" width="244" height="40" rx="5" fill="#111827"/>
    <rect x="18" y="72" width="244" height="28" rx="5" fill="#E5E7EB" stroke="#9CA3AF"/>
    <rect x="18" y="114" width="152" height="54" rx="5" fill="#FFFFFF" stroke="#9CA3AF"/>
    <rect x="182" y="114" width="80" height="54" rx="5" fill="#E5E7EB" stroke="#9CA3AF"/>
    <rect x="18" y="182" width="244" height="24" rx="5" fill="#374151"/>
    <text x="18" y="220" fill="#374151" font-family="Arial, sans-serif" font-size="22" font-weight="700">Graphite Black</text>
    <circle cx="194" cy="219" r="10" fill="#111827"/>
    <circle cx="220" cy="219" r="10" fill="#E5E7EB" stroke="#9CA3AF"/>
    <circle cx="246" cy="219" r="10" fill="#9CA3AF"/>
  </g>

  <g transform="translate(80,760)">
    <text x="0" y="0" fill="#111827" font-family="Arial, sans-serif" font-size="28" font-weight="700">Suggested First 5</text>
    <text x="0" y="34" fill="#6B7280" font-family="Arial, sans-serif" font-size="18">A balanced starter set for standard users before premium custom templates.</text>

    <g transform="translate(0,70)">
      <rect width="280" height="120" rx="5" fill="#FFFFFF" stroke="#D1D5DB"/>
      <rect x="18" y="18" width="64" height="28" rx="5" fill="#1D4ED8"/>
      <text x="98" y="39" fill="#1E3A8A" font-family="Arial, sans-serif" font-size="22" font-weight="700">Royal Blue</text>
      <text x="18" y="82" fill="#6B7280" font-family="Arial, sans-serif" font-size="16">Safe default, clear and sales-friendly</text>
    </g>

    <g transform="translate(310,70)">
      <rect width="280" height="120" rx="5" fill="#FFFFFF" stroke="#D1D5DB"/>
      <rect x="18" y="18" width="64" height="28" rx="5" fill="#1F2937"/>
      <text x="98" y="39" fill="#374151" font-family="Arial, sans-serif" font-size="22" font-weight="700">Slate Professional</text>
      <text x="18" y="82" fill="#6B7280" font-family="Arial, sans-serif" font-size="16">Premium and neutral for most sellers</text>
    </g>

    <g transform="translate(620,70)">
      <rect width="280" height="120" rx="5" fill="#FFFDF8" stroke="#E0D4C5"/>
      <rect x="18" y="18" width="64" height="28" rx="5" fill="#0F3D56"/>
      <text x="98" y="39" fill="#7A6A58" font-family="Arial, sans-serif" font-size="22" font-weight="700">Warm Ivory</text>
      <text x="18" y="82" fill="#7A6A58" font-family="Arial, sans-serif" font-size="16">Softer premium look without layout changes</text>
    </g>

    <g transform="translate(930,70)">
      <rect width="280" height="120" rx="5" fill="#F6FFF8" stroke="#86EFAC"/>
      <rect x="18" y="18" width="64" height="28" rx="5" fill="#166534"/>
      <text x="98" y="39" fill="#14532D" font-family="Arial, sans-serif" font-size="22" font-weight="700">Forest Ledger</text>
      <text x="18" y="82" fill="#14532D" font-family="Arial, sans-serif" font-size="16">Grounded, document-like, trustworthy</text>
    </g>

    <g transform="translate(1240,70)">
      <rect width="280" height="120" rx="5" fill="#FFFFFF" stroke="#94A3B8"/>
      <rect x="18" y="18" width="64" height="28" rx="5" fill="#334155"/>
      <text x="98" y="39" fill="#475569" font-family="Arial, sans-serif" font-size="22" font-weight="700">Steel Grid</text>
      <text x="18" y="82" fill="#475569" font-family="Arial, sans-serif" font-size="16">Technical and industrial-friendly</text>
    </g>
  </g>
</svg>
