<svg width="900" height="1280" viewBox="0 0 900 1280" fill="none" xmlns="http://www.w3.org/2000/svg">
  <rect width="900" height="1280" fill="#E5E7EB"/>
  <rect x="70" y="40" width="760" height="1200" rx="5" fill="#FFFFFF"/>
  <rect x="70" y="40" width="760" height="96" rx="5" fill="#1F2937"/>
  <text x="110" y="92" fill="#F9FAFB" font-family="Arial, sans-serif" font-size="30" font-weight="700">Slate Executive</text>
  <text x="110" y="120" fill="#D1D5DB" font-family="Arial, sans-serif" font-size="16">Default template structure, elevated boardroom styling</text>
  <rect x="100" y="170" width="700" height="44" rx="5" fill="#F3F4F6" stroke="#CBD5E1"/>
  <text x="120" y="198" fill="#111827" font-family="Arial, sans-serif" font-size="15" font-weight="700">GSTIN</text>
  <text x="360" y="198" fill="#111827" font-family="Arial, sans-serif" font-size="15" font-weight="700">QUOTATION NO.</text>
  <text x="670" y="198" fill="#111827" font-family="Arial, sans-serif" font-size="15" font-weight="700">DATE</text>
  <rect x="100" y="235" width="336" height="150" rx="5" fill="#FFFFFF" stroke="#CBD5E1"/>
  <rect x="464" y="235" width="336" height="150" rx="5" fill="#FFFFFF" stroke="#CBD5E1"/>
  <text x="122" y="265" fill="#374151" font-family="Arial, sans-serif" font-size="18" font-weight="700">Customer Detail</text>
  <text x="486" y="265" fill="#374151" font-family="Arial, sans-serif" font-size="18" font-weight="700">Quotation Detail</text>
  <text x="122" y="300" fill="#6B7280" font-family="Arial, sans-serif" font-size="14">Name / Address / Phone / GSTIN / Place of Supply</text>
  <text x="486" y="300" fill="#6B7280" font-family="Arial, sans-serif" font-size="14">Version / Reference / Delivery Date / Delivery Type</text>
  <rect x="100" y="420" width="700" height="44" rx="5" fill="#374151"/>
  <text x="122" y="448" fill="#FFFFFF" font-family="Arial, sans-serif" font-size="15" font-weight="700">Items Table</text>
  <g stroke="#D1D5DB">
    <rect x="100" y="464" width="700" height="268" fill="#FFFFFF"/>
    <line x1="150" y1="464" x2="150" y2="732"/>
    <line x1="470" y1="464" x2="470" y2="732"/>
    <line x1="590" y1="464" x2="590" y2="732"/>
    <line x1="700" y1="464" x2="700" y2="732"/>
    <line x1="100" y1="518" x2="800" y2="518"/>
    <line x1="100" y1="572" x2="800" y2="572"/>
    <line x1="100" y1="626" x2="800" y2="626"/>
    <line x1="100" y1="680" x2="800" y2="680"/>
  </g>
  <rect x="100" y="770" width="420" height="108" rx="5" fill="#F9FAFB" stroke="#CBD5E1"/>
  <rect x="550" y="770" width="250" height="108" rx="5" fill="#F9FAFB" stroke="#CBD5E1"/>
  <text x="122" y="804" fill="#374151" font-family="Arial, sans-serif" font-size="18" font-weight="700">Amount in Words</text>
  <text x="122" y="833" fill="#6B7280" font-family="Arial, sans-serif" font-size="14">Large, quiet emphasis with strong spacing</text>
  <text x="572" y="804" fill="#374151" font-family="Arial, sans-serif" font-size="18" font-weight="700">Totals</text>
  <text x="572" y="833" fill="#6B7280" font-family="Arial, sans-serif" font-size="14">Subtotal / Discount / GST / Grand Total</text>
  <rect x="100" y="910" width="430" height="146" rx="5" fill="#FFFFFF" stroke="#CBD5E1"/>
  <rect x="550" y="910" width="250" height="146" rx="5" fill="#FFFFFF" stroke="#CBD5E1"/>
  <text x="122" y="944" fill="#374151" font-family="Arial, sans-serif" font-size="18" font-weight="700">Bank Details</text>
  <text x="122" y="975" fill="#6B7280" font-family="Arial, sans-serif" font-size="14">Same content blocks, cleaner linework and hierarchy</text>
  <text x="572" y="944" fill="#374151" font-family="Arial, sans-serif" font-size="18" font-weight="700">Signature</text>
  <text x="572" y="1008" fill="#9CA3AF" font-family="Arial, sans-serif" font-size="14">Authorised Signatory</text>
  <text x="450" y="1178" text-anchor="middle" fill="#6B7280" font-family="Arial, sans-serif" font-size="16">Footer text / footer image area</text>
</svg>
